<svg xmlns="http://www.w3.org/2000/svg" viewBox="0 0 43 43" shape-rendering="crispEdges">
<g id="sprite" stroke="none">
<rect x="0" y="0" width="42" height="42" fill="rgb(89,89,89)"/>
<rect x="0" y="18" width="3" height="24" fill="rgb(255,0,0)"/>
<rect x="3" y="9" width="3" height="30" fill="rgb(255,0,0)"/>
<rect x="6" y="6" width="3" height="30" fill="rgb(255,0,0)"/>
<rect x="9" y="3" width="3" height="9" fill="rgb(255,0,0)"/>
<rect x="9" y="12" width="3" height="9" fill="rgb(222,222,255)"/>
<rect x="9" y="21" width="3" height="18" fill="rgb(255,0,0)"/>
<rect x="12" y="3" width="3" height="6" fill="rgb(255,0,0)"/>
<rect x="12" y="9" width="3" height="15" fill="rgb(222,222,255)"/>
<rect x="12" y="24" width="3" height="18" fill="rgb(255,0,0)"/>
<rect x="15" y="0" width="3" height="9" fill="rgb(255,0,0)"/>
<rect x="15" y="9" width="3" height="6" fill="rgb(222,222,255)"/>
<rect x="15" y="15" width="3" height="6" fill="rgb(33,33,255)"/>
<rect x="15" y="21" width="3" height="3" fill="rgb(222,222,255)"/>
<rect x="15" y="24" width="3" height="18" fill="rgb(255,0,0)"/>
<rect x="18" y="0" width="3" height="12" fill="rgb(255,0,0)"/>
<rect x="18" y="12" width="3" height="3" fill="rgb(222,222,255)"/>
<rect x="18" y="15" width="3" height="6" fill="rgb(33,33,255)"/>
<rect x="18" y="21" width="3" height="15" fill="rgb(255,0,0)"/>
<rect x="21" y="0" width="3" height="36" fill="rgb(255,0,0)"/>
<rect x="24" y="0" width="3" height="42" fill="rgb(255,0,0)"/>
<rect x="27" y="3" width="3" height="9" fill="rgb(255,0,0)"/>
<rect x="27" y="12" width="3" height="9" fill="rgb(222,222,255)"/>
<rect x="27" y="21" width="3" height="21" fill="rgb(255,0,0)"/>
<rect x="30" y="3" width="3" height="6" fill="rgb(255,0,0)"/>
<rect x="30" y="9" width="3" height="15" fill="rgb(222,222,255)"/>
<rect x="30" y="24" width="3" height="15" fill="rgb(255,0,0)"/>
<rect x="33" y="6" width="3" height="3" fill="rgb(255,0,0)"/>
<rect x="33" y="9" width="3" height="6" fill="rgb(222,222,255)"/>
<rect x="33" y="15" width="3" height="6" fill="rgb(33,33,255)"/>
<rect x="33" y="21" width="3" height="3" fill="rgb(222,222,255)"/>
<rect x="33" y="24" width="3" height="12" fill="rgb(255,0,0)"/>
<rect x="36" y="9" width="3" height="3" fill="rgb(255,0,0)"/>
<rect x="36" y="12" width="3" height="3" fill="rgb(222,222,255)"/>
<rect x="36" y="15" width="3" height="6" fill="rgb(33,33,255)"/>
<rect x="36" y="21" width="3" height="18" fill="rgb(255,0,0)"/>
<rect x="39" y="18" width="3" height="24" fill="rgb(255,0,0)"/>
<g id="grid" fill="black">
<rect x="0" y="0" width="43" height="1"/>
<rect x="0" y="0" width="1" height="43"/>
<rect x="3" y="0" width="1" height="43"/>
<rect x="6" y="0" width="1" height="43"/>
<rect x="9" y="0" width="1" height="43"/>
<rect x="12" y="0" width="1" height="43"/>
<rect x="15" y="0" width="1" height="43"/>
<rect x="18" y="0" width="1" height="43"/>
<rect x="21" y="0" width="1" height="43"/>
<rect x="24" y="0" width="1" height="43"/>
<rect x="27" y="0" width="1" height="43"/>
<rect x="30" y="0" width="1" height="43"/>
<rect x="33" y="0" width="1" height="43"/>
<rect x="36" y="0" width="1" height="43"/>
<rect x="39" y="0" width="1" height="43"/>
<rect x="42" y="0" width="1" height="43"/>
<rect x="0" y="3" width="43" height="1"/>
<rect x="0" y="0" width="1" height="43"/>
<rect x="3" y="0" width="1" height="43"/>
<rect x="6" y="0" width="1" height="43"/>
<rect x="9" y="0" width="1" height="43"/>
<rect x="12" y="0" width="1" height="43"/>
<rect x="15" y="0" width="1" height="43"/>
<rect x="18" y="0" width="1" height="43"/>
<rect x="21" y="0" width="1" height="43"/>
<rect x="24" y="0" width="1" height="43"/>
<rect x="27" y="0" width="1" height="43"/>
<rect x="30" y="0" width="1" height="43"/>
<rect x="33" y="0" width="1" height="43"/>
<rect x="36" y="0" width="1" height="43"/>
<rect x="39" y="0" width="1" height="43"/>
<rect x="42" y="0" width="1" height="43"/>
<rect x="0" y="6" width="43" height="1"/>
<rect x="0" y="0" width="1" height="43"/>
<rect x="3" y="0" width="1" height="43"/>
<rect x="6" y="0" width="1" height="43"/>
<rect x="9" y="0" width="1" height="43"/>
<rect x="12" y="0" width="1" height="43"/>
<rect x="15" y="0" width="1" height="43"/>
<rect x="18" y="0" width="1" height="43"/>
<rect x="21" y="0" width="1" height="43"/>
<rect x="24" y="0" width="1" height="43"/>
<rect x="27" y="0" width="1" height="43"/>
<rect x="30" y="0" width="1" height="43"/>
<rect x="33" y="0" width="1" height="43"/>
<rect x="36" y="0" width="1" height="43"/>
<rect x="39" y="0" width="1" height="43"/>
<rect x="42" y="0" width="1" height="43"/>
<rect x="0" y="9" width="43" height="1"/>
<rect x="0" y="0" width="1" height="43"/>
<rect x="3" y="0" width="1" height="43"/>
<rect x="6" y="0" width="1" height="43"/>
<rect x="9" y="0" width="1" height="43"/>
<rect x="12" y="0" width="1" height="43"/>
<rect x="15" y="0" width="1" height="43"/>
<rect x="18" y="0" width="1" height="43"/>
<rect x="21" y="0" width="1" height="43"/>
<rect x="24" y="0" width="1" height="43"/>
<rect x="27" y="0" width="1" height="43"/>
<rect x="30" y="0" width="1" height="43"/>
<rect x="33" y="0" width="1" height="43"/>
<rect x="36" y="0" width="1" height="43"/>
<rect x="39" y="0" width="1" height="43"/>
<rect x="42" y="0" width="1" height="43"/>
<rect x="0" y="12" width="43" height="1"/>
<rect x="0" y="0" width="1" height="43"/>
<rect x="3" y="0" width="1" height="43"/>
<rect x="6" y="0" width="1" height="43"/>
<rect x="9" y="0" width="1" height="43"/>
<rect x="12" y="0" width="1" height="43"/>
<rect x="15" y="0" width="1" height="43"/>
<rect x="18" y="0" width="1" height="43"/>
<rect x="21" y="0" width="1" height="43"/>
<rect x="24" y="0" width="1" height="43"/>
<rect x="27" y="0" width="1" height="43"/>
<rect x="30" y="0" width="1" height="43"/>
<rect x="33" y="0" width="1" height="43"/>
<rect x="36" y="0" width="1" height="43"/>
<rect x="39" y="0" width="1" height="43"/>
<rect x="42" y="0" width="1" height="43"/>
<rect x="0" y="15" width="43" height="1"/>
<rect x="0" y="0" width="1" height="43"/>
<rect x="3" y="0" width="1" height="43"/>
<rect x="6" y="0" width="1" height="43"/>
<rect x="9" y="0" width="1" height="43"/>
<rect x="12" y="0" width="1" height="43"/>
<rect x="15" y="0" width="1" height="43"/>
<rect x="18" y="0" width="1" height="43"/>
<rect x="21" y="0" width="1" height="43"/>
<rect x="24" y="0" width="1" height="43"/>
<rect x="27" y="0" width="1" height="43"/>
<rect x="30" y="0" width="1" height="43"/>
<rect x="33" y="0" width="1" height="43"/>
<rect x="36" y="0" width="1" height="43"/>
<rect x="39" y="0" width="1" height="43"/>
<rect x="42" y="0" width="1" height="43"/>
<rect x="0" y="18" width="43" height="1"/>
<rect x="0" y="0" width="1" height="43"/>
<rect x="3" y="0" width="1" height="43"/>
<rect x="6" y="0" width="1" height="43"/>
<rect x="9" y="0" width="1" height="43"/>
<rect x="12" y="0" width="1" height="43"/>
<rect x="15" y="0" width="1" height="43"/>
<rect x="18" y="0" width="1" height="43"/>
<rect x="21" y="0" width="1" height="43"/>
<rect x="24" y="0" width="1" height="43"/>
<rect x="27" y="0" width="1" height="43"/>
<rect x="30" y="0" width="1" height="43"/>
<rect x="33" y="0" width="1" height="43"/>
<rect x="36" y="0" width="1" height="43"/>
<rect x="39" y="0" width="1" height="43"/>
<rect x="42" y="0" width="1" height="43"/>
<rect x="0" y="21" width="43" height="1"/>
<rect x="0" y="0" width="1" height="43"/>
<rect x="3" y="0" width="1" height="43"/>
<rect x="6" y="0" width="1" height="43"/>
<rect x="9" y="0" width="1" height="43"/>
<rect x="12" y="0" width="1" height="43"/>
<rect x="15" y="0" width="1" height="43"/>
<rect x="18" y="0" width="1" height="43"/>
<rect x="21" y="0" width="1" height="43"/>
<rect x="24" y="0" width="1" height="43"/>
<rect x="27" y="0" width="1" height="43"/>
<rect x="30" y="0" width="1" height="43"/>
<rect x="33" y="0" width="1" height="43"/>
<rect x="36" y="0" width="1" height="43"/>
<rect x="39" y="0" width="1" height="43"/>
<rect x="42" y="0" width="1" height="43"/>
<rect x="0" y="24" width="43" height="1"/>
<rect x="0" y="0" width="1" height="43"/>
<rect x="3" y="0" width="1" height="43"/>
<rect x="6" y="0" width="1" height="43"/>
<rect x="9" y="0" width="1" height="43"/>
<rect x="12" y="0" width="1" height="43"/>
<rect x="15" y="0" width="1" height="43"/>
<rect x="18" y="0" width="1" height="43"/>
<rect x="21" y="0" width="1" height="43"/>
<rect x="24" y="0" width="1" height="43"/>
<rect x="27" y="0" width="1" height="43"/>
<rect x="30" y="0" width="1" height="43"/>
<rect x="33" y="0" width="1" height="43"/>
<rect x="36" y="0" width="1" height="43"/>
<rect x="39" y="0" width="1" height="43"/>
<rect x="42" y="0" width="1" height="43"/>
<rect x="0" y="27" width="43" height="1"/>
<rect x="0" y="0" width="1" height="43"/>
<rect x="3" y="0" width="1" height="43"/>
<rect x="6" y="0" width="1" height="43"/>
<rect x="9" y="0" width="1" height="43"/>
<rect x="12" y="0" width="1" height="43"/>
<rect x="15" y="0" width="1" height="43"/>
<rect x="18" y="0" width="1" height="43"/>
<rect x="21" y="0" width="1" height="43"/>
<rect x="24" y="0" width="1" height="43"/>
<rect x="27" y="0" width="1" height="43"/>
<rect x="30" y="0" width="1" height="43"/>
<rect x="33" y="0" width="1" height="43"/>
<rect x="36" y="0" width="1" height="43"/>
<rect x="39" y="0" width="1" height="43"/>
<rect x="42" y="0" width="1" height="43"/>
<rect x="0" y="30" width="43" height="1"/>
<rect x="0" y="0" width="1" height="43"/>
<rect x="3" y="0" width="1" height="43"/>
<rect x="6" y="0" width="1" height="43"/>
<rect x="9" y="0" width="1" height="43"/>
<rect x="12" y="0" width="1" height="43"/>
<rect x="15" y="0" width="1" height="43"/>
<rect x="18" y="0" width="1" height="43"/>
<rect x="21" y="0" width="1" height="43"/>
<rect x="24" y="0" width="1" height="43"/>
<rect x="27" y="0" width="1" height="43"/>
<rect x="30" y="0" width="1" height="43"/>
<rect x="33" y="0" width="1" height="43"/>
<rect x="36" y="0" width="1" height="43"/>
<rect x="39" y="0" width="1" height="43"/>
<rect x="42" y="0" width="1" height="43"/>
<rect x="0" y="33" width="43" height="1"/>
<rect x="0" y="0" width="1" height="43"/>
<rect x="3" y="0" width="1" height="43"/>
<rect x="6" y="0" width="1" height="43"/>
<rect x="9" y="0" width="1" height="43"/>
<rect x="12" y="0" width="1" height="43"/>
<rect x="15" y="0" width="1" height="43"/>
<rect x="18" y="0" width="1" height="43"/>
<rect x="21" y="0" width="1" height="43"/>
<rect x="24" y="0" width="1" height="43"/>
<rect x="27" y="0" width="1" height="43"/>
<rect x="30" y="0" width="1" height="43"/>
<rect x="33" y="0" width="1" height="43"/>
<rect x="36" y="0" width="1" height="43"/>
<rect x="39" y="0" width="1" height="43"/>
<rect x="42" y="0" width="1" height="43"/>
<rect x="0" y="36" width="43" height="1"/>
<rect x="0" y="0" width="1" height="43"/>
<rect x="3" y="0" width="1" height="43"/>
<rect x="6" y="0" width="1" height="43"/>
<rect x="9" y="0" width="1" height="43"/>
<rect x="12" y="0" width="1" height="43"/>
<rect x="15" y="0" width="1" height="43"/>
<rect x="18" y="0" width="1" height="43"/>
<rect x="21" y="0" width="1" height="43"/>
<rect x="24" y="0" width="1" height="43"/>
<rect x="27" y="0" width="1" height="43"/>
<rect x="30" y="0" width="1" height="43"/>
<rect x="33" y="0" width="1" height="43"/>
<rect x="36" y="0" width="1" height="43"/>
<rect x="39" y="0" width="1" height="43"/>
<rect x="42" y="0" width="1" height="43"/>
<rect x="0" y="39" width="43" height="1"/>
<rect x="0" y="0" width="1" height="43"/>
<rect x="3" y="0" width="1" height="43"/>
<rect x="6" y="0" width="1" height="43"/>
<rect x="9" y="0" width="1" height="43"/>
<rect x="12" y="0" width="1" height="43"/>
<rect x="15" y="0" width="1" height="43"/>
<rect x="18" y="0" width="1" height="43"/>
<rect x="21" y="0" width="1" height="43"/>
<rect x="24" y="0" width="1" height="43"/>
<rect x="27" y="0" width="1" height="43"/>
<rect x="30" y="0" width="1" height="43"/>
<rect x="33" y="0" width="1" height="43"/>
<rect x="36" y="0" width="1" height="43"/>
<rect x="39" y="0" width="1" height="43"/>
<rect x="42" y="0" width="1" height="43"/>
<rect x="0" y="42" width="43" height="1"/>
<rect x="0" y="0" width="1" height="43"/>
<rect x="3" y="0" width="1" height="43"/>
<rect x="6" y="0" width="1" height="43"/>
<rect x="9" y="0" width="1" height="43"/>
<rect x="12" y="0" width="1" height="43"/>
<rect x="15" y="0" width="1" height="43"/>
<rect x="18" y="0" width="1" height="43"/>
<rect x="21" y="0" width="1" height="43"/>
<rect x="24" y="0" width="1" height="43"/>
<rect x="27" y="0" width="1" height="43"/>
<rect x="30" y="0" width="1" height="43"/>
<rect x="33" y="0" width="1" height="43"/>
<rect x="36" y="0" width="1" height="43"/>
<rect x="39" y="0" width="1" height="43"/>
<rect x="42" y="0" width="1" height="43"/>
</g>
</g>
</svg>
