<svg xmlns="http://www.w3.org/2000/svg" viewBox="0 0 85 85" shape-rendering="crispEdges">
<g id="sprite" stroke="none">
<rect x="0" y="36" width="6" height="48" fill="rgb(255,0,0)"/>
<rect x="6" y="18" width="6" height="60" fill="rgb(255,0,0)"/>
<rect x="12" y="12" width="6" height="60" fill="rgb(255,0,0)"/>
<rect x="18" y="6" width="6" height="18" fill="rgb(255,0,0)"/>
<rect x="18" y="24" width="6" height="18" fill="rgb(222,222,255)"/>
<rect x="18" y="42" width="6" height="36" fill="rgb(255,0,0)"/>
<rect x="24" y="6" width="6" height="12" fill="rgb(255,0,0)"/>
<rect x="24" y="18" width="6" height="30" fill="rgb(222,222,255)"/>
<rect x="24" y="48" width="6" height="36" fill="rgb(255,0,0)"/>
<rect x="30" y="0" width="6" height="18" fill="rgb(255,0,0)"/>
<rect x="30" y="18" width="6" height="12" fill="rgb(222,222,255)"/>
<rect x="30" y="30" width="6" height="12" fill="rgb(33,33,255)"/>
<rect x="30" y="42" width="6" height="6" fill="rgb(222,222,255)"/>
<rect x="30" y="48" width="6" height="36" fill="rgb(255,0,0)"/>
<rect x="36" y="0" width="6" height="24" fill="rgb(255,0,0)"/>
<rect x="36" y="24" width="6" height="6" fill="rgb(222,222,255)"/>
<rect x="36" y="30" width="6" height="12" fill="rgb(33,33,255)"/>
<rect x="36" y="42" width="6" height="30" fill="rgb(255,0,0)"/>
<rect x="42" y="0" width="6" height="72" fill="rgb(255,0,0)"/>
<rect x="48" y="0" width="6" height="84" fill="rgb(255,0,0)"/>
<rect x="54" y="6" width="6" height="18" fill="rgb(255,0,0)"/>
<rect x="54" y="24" width="6" height="18" fill="rgb(222,222,255)"/>
<rect x="54" y="42" width="6" height="42" fill="rgb(255,0,0)"/>
<rect x="60" y="6" width="6" height="12" fill="rgb(255,0,0)"/>
<rect x="60" y="18" width="6" height="30" fill="rgb(222,222,255)"/>
<rect x="60" y="48" width="6" height="30" fill="rgb(255,0,0)"/>
<rect x="66" y="12" width="6" height="6" fill="rgb(255,0,0)"/>
<rect x="66" y="18" width="6" height="12" fill="rgb(222,222,255)"/>
<rect x="66" y="30" width="6" height="12" fill="rgb(33,33,255)"/>
<rect x="66" y="42" width="6" height="6" fill="rgb(222,222,255)"/>
<rect x="66" y="48" width="6" height="24" fill="rgb(255,0,0)"/>
<rect x="72" y="18" width="6" height="6" fill="rgb(255,0,0)"/>
<rect x="72" y="24" width="6" height="6" fill="rgb(222,222,255)"/>
<rect x="72" y="30" width="6" height="12" fill="rgb(33,33,255)"/>
<rect x="72" y="42" width="6" height="36" fill="rgb(255,0,0)"/>
<rect x="78" y="36" width="6" height="48" fill="rgb(255,0,0)"/>
<g id="grid" fill="black">
<rect x="0" y="0" width="85" height="1"/>
<rect x="0" y="0" width="1" height="85"/>
<rect x="6" y="0" width="1" height="85"/>
<rect x="12" y="0" width="1" height="85"/>
<rect x="18" y="0" width="1" height="85"/>
<rect x="24" y="0" width="1" height="85"/>
<rect x="30" y="0" width="1" height="85"/>
<rect x="36" y="0" width="1" height="85"/>
<rect x="42" y="0" width="1" height="85"/>
<rect x="48" y="0" width="1" height="85"/>
<rect x="54" y="0" width="1" height="85"/>
<rect x="60" y="0" width="1" height="85"/>
<rect x="66" y="0" width="1" height="85"/>
<rect x="72" y="0" width="1" height="85"/>
<rect x="78" y="0" width="1" height="85"/>
<rect x="84" y="0" width="1" height="85"/>
<rect x="0" y="6" width="85" height="1"/>
<rect x="0" y="0" width="1" height="85"/>
<rect x="6" y="0" width="1" height="85"/>
<rect x="12" y="0" width="1" height="85"/>
<rect x="18" y="0" width="1" height="85"/>
<rect x="24" y="0" width="1" height="85"/>
<rect x="30" y="0" width="1" height="85"/>
<rect x="36" y="0" width="1" height="85"/>
<rect x="42" y="0" width="1" height="85"/>
<rect x="48" y="0" width="1" height="85"/>
<rect x="54" y="0" width="1" height="85"/>
<rect x="60" y="0" width="1" height="85"/>
<rect x="66" y="0" width="1" height="85"/>
<rect x="72" y="0" width="1" height="85"/>
<rect x="78" y="0" width="1" height="85"/>
<rect x="84" y="0" width="1" height="85"/>
<rect x="0" y="12" width="85" height="1"/>
<rect x="0" y="0" width="1" height="85"/>
<rect x="6" y="0" width="1" height="85"/>
<rect x="12" y="0" width="1" height="85"/>
<rect x="18" y="0" width="1" height="85"/>
<rect x="24" y="0" width="1" height="85"/>
<rect x="30" y="0" width="1" height="85"/>
<rect x="36" y="0" width="1" height="85"/>
<rect x="42" y="0" width="1" height="85"/>
<rect x="48" y="0" width="1" height="85"/>
<rect x="54" y="0" width="1" height="85"/>
<rect x="60" y="0" width="1" height="85"/>
<rect x="66" y="0" width="1" height="85"/>
<rect x="72" y="0" width="1" height="85"/>
<rect x="78" y="0" width="1" height="85"/>
<rect x="84" y="0" width="1" height="85"/>
<rect x="0" y="18" width="85" height="1"/>
<rect x="0" y="0" width="1" height="85"/>
<rect x="6" y="0" width="1" height="85"/>
<rect x="12" y="0" width="1" height="85"/>
<rect x="18" y="0" width="1" height="85"/>
<rect x="24" y="0" width="1" height="85"/>
<rect x="30" y="0" width="1" height="85"/>
<rect x="36" y="0" width="1" height="85"/>
<rect x="42" y="0" width="1" height="85"/>
<rect x="48" y="0" width="1" height="85"/>
<rect x="54" y="0" width="1" height="85"/>
<rect x="60" y="0" width="1" height="85"/>
<rect x="66" y="0" width="1" height="85"/>
<rect x="72" y="0" width="1" height="85"/>
<rect x="78" y="0" width="1" height="85"/>
<rect x="84" y="0" width="1" height="85"/>
<rect x="0" y="24" width="85" height="1"/>
<rect x="0" y="0" width="1" height="85"/>
<rect x="6" y="0" width="1" height="85"/>
<rect x="12" y="0" width="1" height="85"/>
<rect x="18" y="0" width="1" height="85"/>
<rect x="24" y="0" width="1" height="85"/>
<rect x="30" y="0" width="1" height="85"/>
<rect x="36" y="0" width="1" height="85"/>
<rect x="42" y="0" width="1" height="85"/>
<rect x="48" y="0" width="1" height="85"/>
<rect x="54" y="0" width="1" height="85"/>
<rect x="60" y="0" width="1" height="85"/>
<rect x="66" y="0" width="1" height="85"/>
<rect x="72" y="0" width="1" height="85"/>
<rect x="78" y="0" width="1" height="85"/>
<rect x="84" y="0" width="1" height="85"/>
<rect x="0" y="30" width="85" height="1"/>
<rect x="0" y="0" width="1" height="85"/>
<rect x="6" y="0" width="1" height="85"/>
<rect x="12" y="0" width="1" height="85"/>
<rect x="18" y="0" width="1" height="85"/>
<rect x="24" y="0" width="1" height="85"/>
<rect x="30" y="0" width="1" height="85"/>
<rect x="36" y="0" width="1" height="85"/>
<rect x="42" y="0" width="1" height="85"/>
<rect x="48" y="0" width="1" height="85"/>
<rect x="54" y="0" width="1" height="85"/>
<rect x="60" y="0" width="1" height="85"/>
<rect x="66" y="0" width="1" height="85"/>
<rect x="72" y="0" width="1" height="85"/>
<rect x="78" y="0" width="1" height="85"/>
<rect x="84" y="0" width="1" height="85"/>
<rect x="0" y="36" width="85" height="1"/>
<rect x="0" y="0" width="1" height="85"/>
<rect x="6" y="0" width="1" height="85"/>
<rect x="12" y="0" width="1" height="85"/>
<rect x="18" y="0" width="1" height="85"/>
<rect x="24" y="0" width="1" height="85"/>
<rect x="30" y="0" width="1" height="85"/>
<rect x="36" y="0" width="1" height="85"/>
<rect x="42" y="0" width="1" height="85"/>
<rect x="48" y="0" width="1" height="85"/>
<rect x="54" y="0" width="1" height="85"/>
<rect x="60" y="0" width="1" height="85"/>
<rect x="66" y="0" width="1" height="85"/>
<rect x="72" y="0" width="1" height="85"/>
<rect x="78" y="0" width="1" height="85"/>
<rect x="84" y="0" width="1" height="85"/>
<rect x="0" y="42" width="85" height="1"/>
<rect x="0" y="0" width="1" height="85"/>
<rect x="6" y="0" width="1" height="85"/>
<rect x="12" y="0" width="1" height="85"/>
<rect x="18" y="0" width="1" height="85"/>
<rect x="24" y="0" width="1" height="85"/>
<rect x="30" y="0" width="1" height="85"/>
<rect x="36" y="0" width="1" height="85"/>
<rect x="42" y="0" width="1" height="85"/>
<rect x="48" y="0" width="1" height="85"/>
<rect x="54" y="0" width="1" height="85"/>
<rect x="60" y="0" width="1" height="85"/>
<rect x="66" y="0" width="1" height="85"/>
<rect x="72" y="0" width="1" height="85"/>
<rect x="78" y="0" width="1" height="85"/>
<rect x="84" y="0" width="1" height="85"/>
<rect x="0" y="48" width="85" height="1"/>
<rect x="0" y="0" width="1" height="85"/>
<rect x="6" y="0" width="1" height="85"/>
<rect x="12" y="0" width="1" height="85"/>
<rect x="18" y="0" width="1" height="85"/>
<rect x="24" y="0" width="1" height="85"/>
<rect x="30" y="0" width="1" height="85"/>
<rect x="36" y="0" width="1" height="85"/>
<rect x="42" y="0" width="1" height="85"/>
<rect x="48" y="0" width="1" height="85"/>
<rect x="54" y="0" width="1" height="85"/>
<rect x="60" y="0" width="1" height="85"/>
<rect x="66" y="0" width="1" height="85"/>
<rect x="72" y="0" width="1" height="85"/>
<rect x="78" y="0" width="1" height="85"/>
<rect x="84" y="0" width="1" height="85"/>
<rect x="0" y="54" width="85" height="1"/>
<rect x="0" y="0" width="1" height="85"/>
<rect x="6" y="0" width="1" height="85"/>
<rect x="12" y="0" width="1" height="85"/>
<rect x="18" y="0" width="1" height="85"/>
<rect x="24" y="0" width="1" height="85"/>
<rect x="30" y="0" width="1" height="85"/>
<rect x="36" y="0" width="1" height="85"/>
<rect x="42" y="0" width="1" height="85"/>
<rect x="48" y="0" width="1" height="85"/>
<rect x="54" y="0" width="1" height="85"/>
<rect x="60" y="0" width="1" height="85"/>
<rect x="66" y="0" width="1" height="85"/>
<rect x="72" y="0" width="1" height="85"/>
<rect x="78" y="0" width="1" height="85"/>
<rect x="84" y="0" width="1" height="85"/>
<rect x="0" y="60" width="85" height="1"/>
<rect x="0" y="0" width="1" height="85"/>
<rect x="6" y="0" width="1" height="85"/>
<rect x="12" y="0" width="1" height="85"/>
<rect x="18" y="0" width="1" height="85"/>
<rect x="24" y="0" width="1" height="85"/>
<rect x="30" y="0" width="1" height="85"/>
<rect x="36" y="0" width="1" height="85"/>
<rect x="42" y="0" width="1" height="85"/>
<rect x="48" y="0" width="1" height="85"/>
<rect x="54" y="0" width="1" height="85"/>
<rect x="60" y="0" width="1" height="85"/>
<rect x="66" y="0" width="1" height="85"/>
<rect x="72" y="0" width="1" height="85"/>
<rect x="78" y="0" width="1" height="85"/>
<rect x="84" y="0" width="1" height="85"/>
<rect x="0" y="66" width="85" height="1"/>
<rect x="0" y="0" width="1" height="85"/>
<rect x="6" y="0" width="1" height="85"/>
<rect x="12" y="0" width="1" height="85"/>
<rect x="18" y="0" width="1" height="85"/>
<rect x="24" y="0" width="1" height="85"/>
<rect x="30" y="0" width="1" height="85"/>
<rect x="36" y="0" width="1" height="85"/>
<rect x="42" y="0" width="1" height="85"/>
<rect x="48" y="0" width="1" height="85"/>
<rect x="54" y="0" width="1" height="85"/>
<rect x="60" y="0" width="1" height="85"/>
<rect x="66" y="0" width="1" height="85"/>
<rect x="72" y="0" width="1" height="85"/>
<rect x="78" y="0" width="1" height="85"/>
<rect x="84" y="0" width="1" height="85"/>
<rect x="0" y="72" width="85" height="1"/>
<rect x="0" y="0" width="1" height="85"/>
<rect x="6" y="0" width="1" height="85"/>
<rect x="12" y="0" width="1" height="85"/>
<rect x="18" y="0" width="1" height="85"/>
<rect x="24" y="0" width="1" height="85"/>
<rect x="30" y="0" width="1" height="85"/>
<rect x="36" y="0" width="1" height="85"/>
<rect x="42" y="0" width="1" height="85"/>
<rect x="48" y="0" width="1" height="85"/>
<rect x="54" y="0" width="1" height="85"/>
<rect x="60" y="0" width="1" height="85"/>
<rect x="66" y="0" width="1" height="85"/>
<rect x="72" y="0" width="1" height="85"/>
<rect x="78" y="0" width="1" height="85"/>
<rect x="84" y="0" width="1" height="85"/>
<rect x="0" y="78" width="85" height="1"/>
<rect x="0" y="0" width="1" height="85"/>
<rect x="6" y="0" width="1" height="85"/>
<rect x="12" y="0" width="1" height="85"/>
<rect x="18" y="0" width="1" height="85"/>
<rect x="24" y="0" width="1" height="85"/>
<rect x="30" y="0" width="1" height="85"/>
<rect x="36" y="0" width="1" height="85"/>
<rect x="42" y="0" width="1" height="85"/>
<rect x="48" y="0" width="1" height="85"/>
<rect x="54" y="0" width="1" height="85"/>
<rect x="60" y="0" width="1" height="85"/>
<rect x="66" y="0" width="1" height="85"/>
<rect x="72" y="0" width="1" height="85"/>
<rect x="78" y="0" width="1" height="85"/>
<rect x="84" y="0" width="1" height="85"/>
<rect x="0" y="84" width="85" height="1"/>
<rect x="0" y="0" width="1" height="85"/>
<rect x="6" y="0" width="1" height="85"/>
<rect x="12" y="0" width="1" height="85"/>
<rect x="18" y="0" width="1" height="85"/>
<rect x="24" y="0" width="1" height="85"/>
<rect x="30" y="0" width="1" height="85"/>
<rect x="36" y="0" width="1" height="85"/>
<rect x="42" y="0" width="1" height="85"/>
<rect x="48" y="0" width="1" height="85"/>
<rect x="54" y="0" width="1" height="85"/>
<rect x="60" y="0" width="1" height="85"/>
<rect x="66" y="0" width="1" height="85"/>
<rect x="72" y="0" width="1" height="85"/>
<rect x="78" y="0" width="1" height="85"/>
<rect x="84" y="0" width="1" height="85"/>
</g>
</g>
</svg>
